<mxfile host="www.draw.io" modified="2020-02-12T00:49:49.485Z" agent="Mozilla/5.0 (X11; Linux x86_64; rv:72.0) Gecko/20100101 Firefox/72.0" etag="V_6E3_2XwuIGc_-XXphw" version="12.6.7" type="github">
  <diagram id="kI7HEXV1WSdf7AZ77ItN" name="Page-1">
    <mxGraphModel dx="1414" dy="768" grid="1" gridSize="10" guides="1" tooltips="1" connect="1" arrows="1" fold="1" page="1" pageScale="1" pageWidth="827" pageHeight="1169" math="0" shadow="0">
      <root>
        <mxCell id="0"/>
        <mxCell id="1" parent="0"/>
        <mxCell id="eIcEKhCzEtSRmRi_goPy-16" style="edgeStyle=none;rounded=0;orthogonalLoop=1;jettySize=auto;html=1;fontSize=8;" edge="1" parent="1" source="eIcEKhCzEtSRmRi_goPy-1" target="eIcEKhCzEtSRmRi_goPy-11">
          <mxGeometry relative="1" as="geometry"/>
        </mxCell>
        <mxCell id="eIcEKhCzEtSRmRi_goPy-1" value="" style="shape=trapezoid;perimeter=trapezoidPerimeter;whiteSpace=wrap;html=1;strokeColor=#000000;rotation=-180;" vertex="1" parent="1">
          <mxGeometry x="60" y="180" width="100" height="20" as="geometry"/>
        </mxCell>
        <mxCell id="eIcEKhCzEtSRmRi_goPy-3" style="rounded=0;orthogonalLoop=1;jettySize=auto;html=1;entryX=0.852;entryY=0.99;entryDx=0;entryDy=0;entryPerimeter=0;" edge="1" parent="1" source="eIcEKhCzEtSRmRi_goPy-2" target="eIcEKhCzEtSRmRi_goPy-1">
          <mxGeometry relative="1" as="geometry"/>
        </mxCell>
        <mxCell id="eIcEKhCzEtSRmRi_goPy-2" value="x&lt;sub&gt;0&lt;/sub&gt;" style="text;html=1;align=center;verticalAlign=middle;resizable=0;points=[];autosize=1;fontStyle=1" vertex="1" parent="1">
          <mxGeometry x="60" y="120" width="30" height="20" as="geometry"/>
        </mxCell>
        <mxCell id="eIcEKhCzEtSRmRi_goPy-8" value="" style="group" vertex="1" connectable="0" parent="1">
          <mxGeometry x="120" y="100" width="50" height="50" as="geometry"/>
        </mxCell>
        <mxCell id="eIcEKhCzEtSRmRi_goPy-4" value="" style="group;fontSize=8;" vertex="1" connectable="0" parent="eIcEKhCzEtSRmRi_goPy-8">
          <mxGeometry width="50" height="50" as="geometry"/>
        </mxCell>
        <mxCell id="eIcEKhCzEtSRmRi_goPy-5" value="" style="verticalLabelPosition=bottom;shadow=0;dashed=0;align=center;html=1;verticalAlign=top;shape=stencil(rVbBcoMgEP0arxmVMu21Q9NjLjnkTJTGbRQcpEn796Ws1Zo0yhBmnHF4u7y3D1wkIayreCuSPOVdKwqTkJckz09cA9/XFs5tpEKQpjiUvBGI7ECWIA8WY0pKOxuUxJzOaHUUZyhNPxlkJTQYjJ4Ry1LHSNZJ+mzR8SGsGPi6f+JXuVaOgzST4jao1VrZRhihEe09fPajFcXx19/oa6jkNkAyu09y5yM59dgXECy59pDM4kpuvGyusoeL7RyQ8C0NVX6i93r2WedRJ6bnUOVlz4TZ6HxzE7bnxfGg1Ycs53lm8wh7U1os0AypUNd4ZPksWw1SvCuwR13qXs49Cvmte8t/jsXZpOmERp3EzX72Er12MPKR2IR0ShiB8TF2if2/JyLjRYk0+r4EMRa16jw+6t90m+nxcdpLw2KzOK4bLehieO9w8Dc=);" vertex="1" parent="eIcEKhCzEtSRmRi_goPy-4">
          <mxGeometry width="50" height="50" as="geometry"/>
        </mxCell>
        <mxCell id="eIcEKhCzEtSRmRi_goPy-6" value="+" style="text;html=1;strokeColor=none;fillColor=none;align=center;verticalAlign=middle;whiteSpace=wrap;rounded=0;fontSize=8;" vertex="1" parent="eIcEKhCzEtSRmRi_goPy-4">
          <mxGeometry x="6.166666666666667" width="8.333333333333334" height="12.5" as="geometry"/>
        </mxCell>
        <mxCell id="eIcEKhCzEtSRmRi_goPy-7" value="+/-" style="text;html=1;strokeColor=none;fillColor=none;align=center;verticalAlign=middle;whiteSpace=wrap;rounded=0;fontSize=8;" vertex="1" parent="eIcEKhCzEtSRmRi_goPy-4">
          <mxGeometry x="35.5" width="8.333333333333334" height="12.5" as="geometry"/>
        </mxCell>
        <mxCell id="eIcEKhCzEtSRmRi_goPy-9" style="edgeStyle=none;rounded=0;orthogonalLoop=1;jettySize=auto;html=1;fontSize=8;entryX=0.152;entryY=0.95;entryDx=0;entryDy=0;entryPerimeter=0;" edge="1" parent="1" source="eIcEKhCzEtSRmRi_goPy-5" target="eIcEKhCzEtSRmRi_goPy-1">
          <mxGeometry relative="1" as="geometry"/>
        </mxCell>
        <mxCell id="eIcEKhCzEtSRmRi_goPy-10" value="" style="group;fontSize=8;" vertex="1" connectable="0" parent="1">
          <mxGeometry x="30" y="230" width="160" height="20" as="geometry"/>
        </mxCell>
        <mxCell id="eIcEKhCzEtSRmRi_goPy-11" value="Register" style="rounded=0;whiteSpace=wrap;html=1;fontStyle=0" vertex="1" parent="eIcEKhCzEtSRmRi_goPy-10">
          <mxGeometry width="160" height="20" as="geometry"/>
        </mxCell>
        <mxCell id="eIcEKhCzEtSRmRi_goPy-12" value="MSB" style="text;html=1;strokeColor=#000000;fillColor=none;align=center;verticalAlign=middle;whiteSpace=wrap;rounded=0;perimeterSpacing=1;dashed=1;fontSize=8;" vertex="1" parent="eIcEKhCzEtSRmRi_goPy-10">
          <mxGeometry width="19.200000000000003" height="20" as="geometry"/>
        </mxCell>
        <mxCell id="eIcEKhCzEtSRmRi_goPy-13" value="LSB" style="text;html=1;strokeColor=#000000;fillColor=none;align=center;verticalAlign=middle;whiteSpace=wrap;rounded=0;perimeterSpacing=1;dashed=1;fontSize=8;" vertex="1" parent="eIcEKhCzEtSRmRi_goPy-10">
          <mxGeometry x="140.8" width="19.200000000000003" height="20" as="geometry"/>
        </mxCell>
        <mxCell id="eIcEKhCzEtSRmRi_goPy-17" value="x&lt;sub style=&quot;font-size: 12px;&quot;&gt;n&lt;/sub&gt;" style="text;html=1;align=center;verticalAlign=middle;resizable=0;points=[];autosize=1;fontSize=12;fontStyle=1" vertex="1" parent="1">
          <mxGeometry x="95" y="288" width="30" height="20" as="geometry"/>
        </mxCell>
        <mxCell id="eIcEKhCzEtSRmRi_goPy-18" style="edgeStyle=none;rounded=0;orthogonalLoop=1;jettySize=auto;html=1;fontSize=12;" edge="1" parent="1" source="eIcEKhCzEtSRmRi_goPy-11" target="eIcEKhCzEtSRmRi_goPy-17">
          <mxGeometry relative="1" as="geometry"/>
        </mxCell>
        <mxCell id="eIcEKhCzEtSRmRi_goPy-22" value="" style="group" vertex="1" connectable="0" parent="1">
          <mxGeometry x="10" y="70" width="100" height="200" as="geometry"/>
        </mxCell>
        <mxCell id="eIcEKhCzEtSRmRi_goPy-19" style="edgeStyle=elbowEdgeStyle;rounded=0;orthogonalLoop=1;jettySize=auto;html=1;fontSize=12;elbow=vertical;exitX=0.175;exitY=-0.015;exitDx=0;exitDy=0;exitPerimeter=0;startArrow=classic;startFill=1;endArrow=none;endFill=0;" edge="1" parent="eIcEKhCzEtSRmRi_goPy-22" source="eIcEKhCzEtSRmRi_goPy-5">
          <mxGeometry relative="1" as="geometry">
            <mxPoint y="200" as="targetPoint"/>
            <Array as="points">
              <mxPoint x="80"/>
              <mxPoint x="40" y="40"/>
              <mxPoint y="110"/>
              <mxPoint y="180"/>
            </Array>
          </mxGeometry>
        </mxCell>
        <mxCell id="eIcEKhCzEtSRmRi_goPy-21" value="" style="endArrow=oval;html=1;fontSize=12;endFill=1;" edge="1" parent="eIcEKhCzEtSRmRi_goPy-22">
          <mxGeometry width="50" height="50" relative="1" as="geometry">
            <mxPoint y="200" as="sourcePoint"/>
            <mxPoint x="100" y="200" as="targetPoint"/>
          </mxGeometry>
        </mxCell>
        <mxCell id="eIcEKhCzEtSRmRi_goPy-24" style="rounded=0;orthogonalLoop=1;jettySize=auto;elbow=vertical;html=1;startArrow=none;startFill=0;endArrow=classic;endFill=1;fontSize=10;entryX=0.813;entryY=-0.044;entryDx=0;entryDy=0;entryPerimeter=0;" edge="1" parent="1" source="eIcEKhCzEtSRmRi_goPy-23" target="eIcEKhCzEtSRmRi_goPy-5">
          <mxGeometry relative="1" as="geometry"/>
        </mxCell>
        <mxCell id="eIcEKhCzEtSRmRi_goPy-23" value="&amp;gt;&amp;gt; i" style="shape=parallelogram;perimeter=parallelogramPerimeter;whiteSpace=wrap;html=1;fontSize=10;" vertex="1" parent="1">
          <mxGeometry x="141" y="40" width="40" height="20" as="geometry"/>
        </mxCell>
        <mxCell id="eIcEKhCzEtSRmRi_goPy-26" value="i=0" style="text;html=1;strokeColor=none;fillColor=none;align=center;verticalAlign=middle;whiteSpace=wrap;rounded=0;fontSize=8;" vertex="1" parent="1">
          <mxGeometry x="70" y="182.5" width="19" height="7" as="geometry"/>
        </mxCell>
        <mxCell id="eIcEKhCzEtSRmRi_goPy-27" value="i&amp;gt;0" style="text;html=1;strokeColor=none;fillColor=none;align=center;verticalAlign=middle;whiteSpace=wrap;rounded=0;fontSize=8;" vertex="1" parent="1">
          <mxGeometry x="130" y="182.5" width="19" height="7" as="geometry"/>
        </mxCell>
        <mxCell id="eIcEKhCzEtSRmRi_goPy-29" style="edgeStyle=none;rounded=0;orthogonalLoop=1;jettySize=auto;html=1;startArrow=none;startFill=0;endArrow=classic;endFill=1;fontSize=12;" edge="1" parent="1" target="eIcEKhCzEtSRmRi_goPy-5">
          <mxGeometry relative="1" as="geometry">
            <mxPoint x="190" y="125" as="sourcePoint"/>
          </mxGeometry>
        </mxCell>
        <mxCell id="eIcEKhCzEtSRmRi_goPy-30" style="edgeStyle=none;rounded=0;orthogonalLoop=1;jettySize=auto;html=1;fontSize=8;" edge="1" parent="1" source="eIcEKhCzEtSRmRi_goPy-31" target="eIcEKhCzEtSRmRi_goPy-41">
          <mxGeometry relative="1" as="geometry"/>
        </mxCell>
        <mxCell id="eIcEKhCzEtSRmRi_goPy-31" value="" style="shape=trapezoid;perimeter=trapezoidPerimeter;whiteSpace=wrap;html=1;strokeColor=#000000;rotation=-180;" vertex="1" parent="1">
          <mxGeometry x="310" y="176" width="100" height="20" as="geometry"/>
        </mxCell>
        <mxCell id="eIcEKhCzEtSRmRi_goPy-32" style="rounded=0;orthogonalLoop=1;jettySize=auto;html=1;entryX=0.852;entryY=0.99;entryDx=0;entryDy=0;entryPerimeter=0;" edge="1" parent="1" source="eIcEKhCzEtSRmRi_goPy-33" target="eIcEKhCzEtSRmRi_goPy-31">
          <mxGeometry relative="1" as="geometry"/>
        </mxCell>
        <mxCell id="eIcEKhCzEtSRmRi_goPy-34" value="" style="group" vertex="1" connectable="0" parent="1">
          <mxGeometry x="370" y="96" width="50" height="50" as="geometry"/>
        </mxCell>
        <mxCell id="eIcEKhCzEtSRmRi_goPy-35" value="" style="group;fontSize=8;" vertex="1" connectable="0" parent="eIcEKhCzEtSRmRi_goPy-34">
          <mxGeometry width="50" height="50" as="geometry"/>
        </mxCell>
        <mxCell id="eIcEKhCzEtSRmRi_goPy-36" value="" style="verticalLabelPosition=bottom;shadow=0;dashed=0;align=center;html=1;verticalAlign=top;shape=stencil(rVbBcoMgEP0arxmVMu21Q9NjLjnkTJTGbRQcpEn796Ws1Zo0yhBmnHF4u7y3D1wkIayreCuSPOVdKwqTkJckz09cA9/XFs5tpEKQpjiUvBGI7ECWIA8WY0pKOxuUxJzOaHUUZyhNPxlkJTQYjJ4Ry1LHSNZJ+mzR8SGsGPi6f+JXuVaOgzST4jao1VrZRhihEe09fPajFcXx19/oa6jkNkAyu09y5yM59dgXECy59pDM4kpuvGyusoeL7RyQ8C0NVX6i93r2WedRJ6bnUOVlz4TZ6HxzE7bnxfGg1Ycs53lm8wh7U1os0AypUNd4ZPksWw1SvCuwR13qXs49Cvmte8t/jsXZpOmERp3EzX72Er12MPKR2IR0ShiB8TF2if2/JyLjRYk0+r4EMRa16jw+6t90m+nxcdpLw2KzOK4bLehieO9w8Dc=);" vertex="1" parent="eIcEKhCzEtSRmRi_goPy-35">
          <mxGeometry width="50" height="50" as="geometry"/>
        </mxCell>
        <mxCell id="eIcEKhCzEtSRmRi_goPy-37" value="+" style="text;html=1;strokeColor=none;fillColor=none;align=center;verticalAlign=middle;whiteSpace=wrap;rounded=0;fontSize=8;" vertex="1" parent="eIcEKhCzEtSRmRi_goPy-35">
          <mxGeometry x="6.166666666666667" width="8.333333333333334" height="12.5" as="geometry"/>
        </mxCell>
        <mxCell id="eIcEKhCzEtSRmRi_goPy-38" value="+/-" style="text;html=1;strokeColor=none;fillColor=none;align=center;verticalAlign=middle;whiteSpace=wrap;rounded=0;fontSize=8;" vertex="1" parent="eIcEKhCzEtSRmRi_goPy-35">
          <mxGeometry x="35.5" width="8.333333333333334" height="12.5" as="geometry"/>
        </mxCell>
        <mxCell id="eIcEKhCzEtSRmRi_goPy-39" style="edgeStyle=none;rounded=0;orthogonalLoop=1;jettySize=auto;html=1;fontSize=8;entryX=0.152;entryY=0.95;entryDx=0;entryDy=0;entryPerimeter=0;" edge="1" parent="1" source="eIcEKhCzEtSRmRi_goPy-36" target="eIcEKhCzEtSRmRi_goPy-31">
          <mxGeometry relative="1" as="geometry"/>
        </mxCell>
        <mxCell id="eIcEKhCzEtSRmRi_goPy-40" value="" style="group;fontSize=8;" vertex="1" connectable="0" parent="1">
          <mxGeometry x="280" y="226" width="160" height="20" as="geometry"/>
        </mxCell>
        <mxCell id="eIcEKhCzEtSRmRi_goPy-41" value="Register" style="rounded=0;whiteSpace=wrap;html=1;fontStyle=0" vertex="1" parent="eIcEKhCzEtSRmRi_goPy-40">
          <mxGeometry width="160" height="20" as="geometry"/>
        </mxCell>
        <mxCell id="eIcEKhCzEtSRmRi_goPy-42" value="MSB" style="text;html=1;strokeColor=#000000;fillColor=none;align=center;verticalAlign=middle;whiteSpace=wrap;rounded=0;perimeterSpacing=1;dashed=1;fontSize=8;" vertex="1" parent="eIcEKhCzEtSRmRi_goPy-40">
          <mxGeometry width="19.200000000000003" height="20" as="geometry"/>
        </mxCell>
        <mxCell id="eIcEKhCzEtSRmRi_goPy-43" value="LSB" style="text;html=1;strokeColor=#000000;fillColor=none;align=center;verticalAlign=middle;whiteSpace=wrap;rounded=0;perimeterSpacing=1;dashed=1;fontSize=8;" vertex="1" parent="eIcEKhCzEtSRmRi_goPy-40">
          <mxGeometry x="140.8" width="19.200000000000003" height="20" as="geometry"/>
        </mxCell>
        <mxCell id="eIcEKhCzEtSRmRi_goPy-44" value="y&lt;sub style=&quot;font-size: 12px&quot;&gt;n&lt;/sub&gt;" style="text;html=1;align=center;verticalAlign=middle;resizable=0;points=[];autosize=1;fontSize=12;fontStyle=1" vertex="1" parent="1">
          <mxGeometry x="345" y="284" width="30" height="20" as="geometry"/>
        </mxCell>
        <mxCell id="eIcEKhCzEtSRmRi_goPy-45" style="edgeStyle=none;rounded=0;orthogonalLoop=1;jettySize=auto;html=1;fontSize=12;" edge="1" parent="1" source="eIcEKhCzEtSRmRi_goPy-41" target="eIcEKhCzEtSRmRi_goPy-44">
          <mxGeometry relative="1" as="geometry"/>
        </mxCell>
        <mxCell id="eIcEKhCzEtSRmRi_goPy-46" value="" style="group" vertex="1" connectable="0" parent="1">
          <mxGeometry x="270" y="66" width="90" height="200" as="geometry"/>
        </mxCell>
        <mxCell id="eIcEKhCzEtSRmRi_goPy-47" style="edgeStyle=elbowEdgeStyle;rounded=0;orthogonalLoop=1;jettySize=auto;html=1;fontSize=12;elbow=vertical;exitX=0.175;exitY=-0.015;exitDx=0;exitDy=0;exitPerimeter=0;startArrow=classic;startFill=1;endArrow=none;endFill=0;" edge="1" parent="eIcEKhCzEtSRmRi_goPy-46" source="eIcEKhCzEtSRmRi_goPy-36">
          <mxGeometry relative="1" as="geometry">
            <mxPoint y="200" as="targetPoint"/>
            <Array as="points">
              <mxPoint x="72"/>
              <mxPoint x="36" y="40"/>
              <mxPoint y="110"/>
              <mxPoint y="180"/>
            </Array>
          </mxGeometry>
        </mxCell>
        <mxCell id="eIcEKhCzEtSRmRi_goPy-48" value="" style="endArrow=oval;html=1;fontSize=12;endFill=1;" edge="1" parent="eIcEKhCzEtSRmRi_goPy-46">
          <mxGeometry width="50" height="50" relative="1" as="geometry">
            <mxPoint y="200" as="sourcePoint"/>
            <mxPoint x="90" y="200" as="targetPoint"/>
          </mxGeometry>
        </mxCell>
        <mxCell id="eIcEKhCzEtSRmRi_goPy-33" value="y&lt;sub&gt;0&lt;/sub&gt;" style="text;html=1;align=center;verticalAlign=middle;resizable=0;points=[];autosize=1;fontStyle=1" vertex="1" parent="eIcEKhCzEtSRmRi_goPy-46">
          <mxGeometry x="40" y="64" width="30" height="20" as="geometry"/>
        </mxCell>
        <mxCell id="eIcEKhCzEtSRmRi_goPy-49" style="rounded=0;orthogonalLoop=1;jettySize=auto;elbow=vertical;html=1;startArrow=none;startFill=0;endArrow=classic;endFill=1;fontSize=10;entryX=0.813;entryY=-0.044;entryDx=0;entryDy=0;entryPerimeter=0;" edge="1" parent="1" source="eIcEKhCzEtSRmRi_goPy-50" target="eIcEKhCzEtSRmRi_goPy-36">
          <mxGeometry relative="1" as="geometry"/>
        </mxCell>
        <mxCell id="eIcEKhCzEtSRmRi_goPy-50" value="&amp;gt;&amp;gt; i" style="shape=parallelogram;perimeter=parallelogramPerimeter;whiteSpace=wrap;html=1;fontSize=10;" vertex="1" parent="1">
          <mxGeometry x="391" y="36" width="40" height="20" as="geometry"/>
        </mxCell>
        <mxCell id="eIcEKhCzEtSRmRi_goPy-51" value="i=0" style="text;html=1;strokeColor=none;fillColor=none;align=center;verticalAlign=middle;whiteSpace=wrap;rounded=0;fontSize=8;" vertex="1" parent="1">
          <mxGeometry x="320" y="178.5" width="19" height="7" as="geometry"/>
        </mxCell>
        <mxCell id="eIcEKhCzEtSRmRi_goPy-52" value="i&amp;gt;0" style="text;html=1;strokeColor=none;fillColor=none;align=center;verticalAlign=middle;whiteSpace=wrap;rounded=0;fontSize=8;" vertex="1" parent="1">
          <mxGeometry x="380" y="178.5" width="19" height="7" as="geometry"/>
        </mxCell>
        <mxCell id="eIcEKhCzEtSRmRi_goPy-55" style="edgeStyle=elbowEdgeStyle;rounded=0;orthogonalLoop=1;jettySize=auto;html=1;startArrow=none;startFill=0;endArrow=none;endFill=0;fontSize=12;" edge="1" parent="1" source="eIcEKhCzEtSRmRi_goPy-41">
          <mxGeometry relative="1" as="geometry">
            <mxPoint x="190" y="125" as="targetPoint"/>
            <Array as="points">
              <mxPoint x="240" y="190"/>
              <mxPoint x="230" y="200"/>
              <mxPoint x="250" y="180"/>
            </Array>
          </mxGeometry>
        </mxCell>
        <mxCell id="eIcEKhCzEtSRmRi_goPy-62" value="sgn(y)" style="text;html=1;align=center;verticalAlign=middle;resizable=0;points=[];labelBackgroundColor=#ffffff;fontSize=12;horizontal=0;" vertex="1" connectable="0" parent="eIcEKhCzEtSRmRi_goPy-55">
          <mxGeometry x="-0.2395" relative="1" as="geometry">
            <mxPoint as="offset"/>
          </mxGeometry>
        </mxCell>
        <mxCell id="eIcEKhCzEtSRmRi_goPy-57" value="" style="endArrow=classic;html=1;fontSize=12;startArrow=oval;startFill=1;edgeStyle=elbowEdgeStyle;" edge="1" parent="1" target="eIcEKhCzEtSRmRi_goPy-36">
          <mxGeometry width="50" height="50" relative="1" as="geometry">
            <mxPoint x="240" y="170" as="sourcePoint"/>
            <mxPoint x="290" y="10" as="targetPoint"/>
            <Array as="points">
              <mxPoint x="290" y="150"/>
            </Array>
          </mxGeometry>
        </mxCell>
        <mxCell id="eIcEKhCzEtSRmRi_goPy-59" value="" style="endArrow=none;html=1;fontSize=12;startArrow=oval;startFill=1;edgeStyle=elbowEdgeStyle;endFill=0;" edge="1" parent="1">
          <mxGeometry width="50" height="50" relative="1" as="geometry">
            <mxPoint x="270" y="265" as="sourcePoint"/>
            <mxPoint x="200" y="20" as="targetPoint"/>
            <Array as="points">
              <mxPoint x="210" y="150"/>
            </Array>
          </mxGeometry>
        </mxCell>
        <mxCell id="eIcEKhCzEtSRmRi_goPy-60" value="" style="endArrow=classic;html=1;fontSize=12;edgeStyle=orthogonalEdgeStyle;" edge="1" parent="1" target="eIcEKhCzEtSRmRi_goPy-23">
          <mxGeometry width="50" height="50" relative="1" as="geometry">
            <mxPoint x="200" y="20" as="sourcePoint"/>
            <mxPoint x="200" as="targetPoint"/>
          </mxGeometry>
        </mxCell>
        <mxCell id="eIcEKhCzEtSRmRi_goPy-64" value="" style="endArrow=classic;html=1;fontSize=12;startArrow=oval;startFill=1;edgeStyle=orthogonalEdgeStyle;elbow=vertical;" edge="1" parent="1" target="eIcEKhCzEtSRmRi_goPy-50">
          <mxGeometry width="50" height="50" relative="1" as="geometry">
            <mxPoint x="10" y="70" as="sourcePoint"/>
            <mxPoint x="405.1428571428571" y="-30" as="targetPoint"/>
            <Array as="points">
              <mxPoint x="10" y="10"/>
              <mxPoint x="411" y="10"/>
            </Array>
          </mxGeometry>
        </mxCell>
        <mxCell id="eIcEKhCzEtSRmRi_goPy-71" style="rounded=0;orthogonalLoop=1;jettySize=auto;html=1;startArrow=none;startFill=0;endArrow=classic;endFill=1;fontSize=12;entryX=0.185;entryY=0.017;entryDx=0;entryDy=0;entryPerimeter=0;" edge="1" parent="1" source="eIcEKhCzEtSRmRi_goPy-65" target="eIcEKhCzEtSRmRi_goPy-68">
          <mxGeometry relative="1" as="geometry"/>
        </mxCell>
        <mxCell id="eIcEKhCzEtSRmRi_goPy-65" value="&lt;div&gt;arctan&lt;/div&gt;&lt;div&gt;LUT&lt;br&gt;&lt;/div&gt;" style="rounded=0;whiteSpace=wrap;html=1;fontSize=12;" vertex="1" parent="1">
          <mxGeometry x="500" y="22" width="60" height="38" as="geometry"/>
        </mxCell>
        <mxCell id="eIcEKhCzEtSRmRi_goPy-66" value="" style="group" vertex="1" connectable="0" parent="1">
          <mxGeometry x="520" y="96" width="50" height="50" as="geometry"/>
        </mxCell>
        <mxCell id="eIcEKhCzEtSRmRi_goPy-67" value="" style="group;fontSize=8;" vertex="1" connectable="0" parent="eIcEKhCzEtSRmRi_goPy-66">
          <mxGeometry width="50" height="50" as="geometry"/>
        </mxCell>
        <mxCell id="eIcEKhCzEtSRmRi_goPy-68" value="" style="verticalLabelPosition=bottom;shadow=0;dashed=0;align=center;html=1;verticalAlign=top;shape=stencil(rVbBcoMgEP0arxmVMu21Q9NjLjnkTJTGbRQcpEn796Ws1Zo0yhBmnHF4u7y3D1wkIayreCuSPOVdKwqTkJckz09cA9/XFs5tpEKQpjiUvBGI7ECWIA8WY0pKOxuUxJzOaHUUZyhNPxlkJTQYjJ4Ry1LHSNZJ+mzR8SGsGPi6f+JXuVaOgzST4jao1VrZRhihEe09fPajFcXx19/oa6jkNkAyu09y5yM59dgXECy59pDM4kpuvGyusoeL7RyQ8C0NVX6i93r2WedRJ6bnUOVlz4TZ6HxzE7bnxfGg1Ycs53lm8wh7U1os0AypUNd4ZPksWw1SvCuwR13qXs49Cvmte8t/jsXZpOmERp3EzX72Er12MPKR2IR0ShiB8TF2if2/JyLjRYk0+r4EMRa16jw+6t90m+nxcdpLw2KzOK4bLehieO9w8Dc=);" vertex="1" parent="eIcEKhCzEtSRmRi_goPy-67">
          <mxGeometry width="50" height="50" as="geometry"/>
        </mxCell>
        <mxCell id="eIcEKhCzEtSRmRi_goPy-69" value="+" style="text;html=1;strokeColor=none;fillColor=none;align=center;verticalAlign=middle;whiteSpace=wrap;rounded=0;fontSize=8;" vertex="1" parent="eIcEKhCzEtSRmRi_goPy-67">
          <mxGeometry x="6.166666666666667" width="8.333333333333334" height="12.5" as="geometry"/>
        </mxCell>
        <mxCell id="eIcEKhCzEtSRmRi_goPy-70" value="+/-" style="text;html=1;strokeColor=none;fillColor=none;align=center;verticalAlign=middle;whiteSpace=wrap;rounded=0;fontSize=8;" vertex="1" parent="eIcEKhCzEtSRmRi_goPy-67">
          <mxGeometry x="35.5" width="8.333333333333334" height="12.5" as="geometry"/>
        </mxCell>
        <mxCell id="eIcEKhCzEtSRmRi_goPy-72" style="edgeStyle=elbowEdgeStyle;rounded=0;orthogonalLoop=1;jettySize=auto;html=1;startArrow=none;startFill=0;endArrow=classic;endFill=1;fontSize=12;" edge="1" parent="1" source="eIcEKhCzEtSRmRi_goPy-41" target="eIcEKhCzEtSRmRi_goPy-68">
          <mxGeometry relative="1" as="geometry"/>
        </mxCell>
        <mxCell id="eIcEKhCzEtSRmRi_goPy-73" value="sgn(y)" style="text;html=1;align=center;verticalAlign=middle;resizable=0;points=[];labelBackgroundColor=#ffffff;fontSize=12;horizontal=0;" vertex="1" connectable="0" parent="eIcEKhCzEtSRmRi_goPy-72">
          <mxGeometry x="-0.0496" relative="1" as="geometry">
            <mxPoint as="offset"/>
          </mxGeometry>
        </mxCell>
        <mxCell id="eIcEKhCzEtSRmRi_goPy-77" value="" style="shape=trapezoid;perimeter=trapezoidPerimeter;whiteSpace=wrap;html=1;strokeColor=#000000;rotation=-180;" vertex="1" parent="1">
          <mxGeometry x="530" y="182.5" width="100" height="20" as="geometry"/>
        </mxCell>
        <mxCell id="eIcEKhCzEtSRmRi_goPy-78" style="rounded=0;orthogonalLoop=1;jettySize=auto;html=1;entryX=0.852;entryY=0.99;entryDx=0;entryDy=0;entryPerimeter=0;" edge="1" parent="1" target="eIcEKhCzEtSRmRi_goPy-77" source="eIcEKhCzEtSRmRi_goPy-68">
          <mxGeometry relative="1" as="geometry">
            <mxPoint x="544.9601593625498" y="150" as="sourcePoint"/>
          </mxGeometry>
        </mxCell>
        <mxCell id="eIcEKhCzEtSRmRi_goPy-79" value="i&amp;gt;0" style="text;html=1;strokeColor=none;fillColor=none;align=center;verticalAlign=middle;whiteSpace=wrap;rounded=0;fontSize=8;" vertex="1" parent="1">
          <mxGeometry x="540" y="185" width="19" height="7" as="geometry"/>
        </mxCell>
        <mxCell id="eIcEKhCzEtSRmRi_goPy-80" value="i=0" style="text;html=1;strokeColor=none;fillColor=none;align=center;verticalAlign=middle;whiteSpace=wrap;rounded=0;fontSize=8;" vertex="1" parent="1">
          <mxGeometry x="600" y="185" width="19" height="7" as="geometry"/>
        </mxCell>
        <mxCell id="eIcEKhCzEtSRmRi_goPy-81" style="rounded=0;orthogonalLoop=1;jettySize=auto;html=1;entryX=0.852;entryY=0.99;entryDx=0;entryDy=0;entryPerimeter=0;" edge="1" parent="1" source="eIcEKhCzEtSRmRi_goPy-82">
          <mxGeometry relative="1" as="geometry">
            <mxPoint x="612.4200000000001" y="182.50000000000006" as="targetPoint"/>
          </mxGeometry>
        </mxCell>
        <mxCell id="eIcEKhCzEtSRmRi_goPy-82" value="z&lt;sub&gt;0&lt;/sub&gt;" style="text;html=1;align=center;verticalAlign=middle;resizable=0;points=[];autosize=1;fontStyle=1" vertex="1" parent="1">
          <mxGeometry x="597.62" y="122.30000000000001" width="30" height="20" as="geometry"/>
        </mxCell>
        <mxCell id="eIcEKhCzEtSRmRi_goPy-83" style="edgeStyle=none;rounded=0;orthogonalLoop=1;jettySize=auto;html=1;fontSize=8;" edge="1" parent="1" target="eIcEKhCzEtSRmRi_goPy-85" source="eIcEKhCzEtSRmRi_goPy-77">
          <mxGeometry relative="1" as="geometry">
            <mxPoint x="580" y="206" as="sourcePoint"/>
          </mxGeometry>
        </mxCell>
        <mxCell id="eIcEKhCzEtSRmRi_goPy-84" value="" style="group;fontSize=8;" vertex="1" connectable="0" parent="1">
          <mxGeometry x="500" y="233" width="160" height="20" as="geometry"/>
        </mxCell>
        <mxCell id="eIcEKhCzEtSRmRi_goPy-85" value="Register" style="rounded=0;whiteSpace=wrap;html=1;fontStyle=0" vertex="1" parent="eIcEKhCzEtSRmRi_goPy-84">
          <mxGeometry width="160" height="20" as="geometry"/>
        </mxCell>
        <mxCell id="eIcEKhCzEtSRmRi_goPy-86" value="MSB" style="text;html=1;strokeColor=#000000;fillColor=none;align=center;verticalAlign=middle;whiteSpace=wrap;rounded=0;perimeterSpacing=1;dashed=1;fontSize=8;" vertex="1" parent="eIcEKhCzEtSRmRi_goPy-84">
          <mxGeometry width="19.200000000000003" height="20" as="geometry"/>
        </mxCell>
        <mxCell id="eIcEKhCzEtSRmRi_goPy-87" value="LSB" style="text;html=1;strokeColor=#000000;fillColor=none;align=center;verticalAlign=middle;whiteSpace=wrap;rounded=0;perimeterSpacing=1;dashed=1;fontSize=8;" vertex="1" parent="eIcEKhCzEtSRmRi_goPy-84">
          <mxGeometry x="140.8" width="19.200000000000003" height="20" as="geometry"/>
        </mxCell>
        <mxCell id="eIcEKhCzEtSRmRi_goPy-88" value="z&lt;sub style=&quot;font-size: 12px&quot;&gt;n&lt;/sub&gt;" style="text;html=1;align=center;verticalAlign=middle;resizable=0;points=[];autosize=1;fontSize=12;fontStyle=1" vertex="1" parent="1">
          <mxGeometry x="565" y="286" width="30" height="20" as="geometry"/>
        </mxCell>
        <mxCell id="eIcEKhCzEtSRmRi_goPy-89" style="edgeStyle=elbowEdgeStyle;rounded=0;orthogonalLoop=1;jettySize=auto;html=1;startArrow=none;startFill=0;endArrow=classic;endFill=1;fontSize=12;" edge="1" parent="1" source="eIcEKhCzEtSRmRi_goPy-85" target="eIcEKhCzEtSRmRi_goPy-88">
          <mxGeometry relative="1" as="geometry"/>
        </mxCell>
        <mxCell id="eIcEKhCzEtSRmRi_goPy-90" value="" style="endArrow=none;html=1;fontSize=12;startArrow=oval;startFill=1;edgeStyle=elbowEdgeStyle;endFill=0;" edge="1" parent="1">
          <mxGeometry width="50" height="50" relative="1" as="geometry">
            <mxPoint x="580" y="270" as="sourcePoint"/>
            <mxPoint x="610" y="70" as="targetPoint"/>
            <Array as="points">
              <mxPoint x="670" y="180"/>
              <mxPoint x="680" y="190"/>
            </Array>
          </mxGeometry>
        </mxCell>
        <mxCell id="eIcEKhCzEtSRmRi_goPy-91" value="" style="endArrow=classic;html=1;fontSize=12;edgeStyle=orthogonalEdgeStyle;entryX=0.823;entryY=0.017;entryDx=0;entryDy=0;entryPerimeter=0;" edge="1" parent="1" target="eIcEKhCzEtSRmRi_goPy-68">
          <mxGeometry width="50" height="50" relative="1" as="geometry">
            <mxPoint x="620" y="70" as="sourcePoint"/>
            <mxPoint x="660" y="100" as="targetPoint"/>
            <Array as="points">
              <mxPoint x="610" y="70"/>
              <mxPoint x="561" y="70"/>
            </Array>
          </mxGeometry>
        </mxCell>
      </root>
    </mxGraphModel>
  </diagram>
</mxfile>
